<svg width="42" height="37" fill="none" xmlns="http://www.w3.org/2000/svg"><path d="M26.2 37a2.477 2.477 0 11.201 0h-.2zM6.754 34.32a2.68 2.68 0 115.364 0 2.68 2.68 0 01-5.366 0h.002zm3.8-5.634a1.184 1.184 0 01-1.145-.867L4.575 10.364H1.182a1.182 1.182 0 110-2.364h4.281a1.183 1.183 0 011.144.868l4.833 17.455h13.178L29 16.275H14.4a1.184 1.184 0 110-2.365h16.413a1.18 1.18 0 011.177 1.081 1.2 1.2 0 01-.091.574l-5.405 12.412a1.185 1.185 0 01-1.084.709H10.553z" fill="#E8E8E8"/><path d="M31.502 19a9.5 9.5 0 100-19 9.5 9.5 0 000 19z" fill="#F16D7F"/><path d="M30.815 7.648c.448-.096.86-.144 1.236-.144.448 0 .844.066 1.188.198s.63.314.858.546c.232.232.406.506.522.822.12.316.18.66.18 1.032 0 .456-.08.868-.24 1.236a2.774 2.774 0 01-1.632 1.548c-.376.14-.782.21-1.218.21a3.31 3.31 0 01-.726-.078 3.663 3.663 0 01-1.212-.486 3.226 3.226 0 01-.456-.342l.33-.456a.33.33 0 01.282-.156c.08 0 .17.032.27.096.1.06.222.128.366.204.144.076.312.146.504.21.196.06.428.09.696.09.3 0 .57-.048.81-.144.24-.096.446-.232.618-.408.172-.18.304-.394.396-.642.092-.248.138-.526.138-.834 0-.268-.04-.51-.12-.726a1.381 1.381 0 00-.354-.552 1.594 1.594 0 00-.588-.354 2.468 2.468 0 00-.828-.126 4.5 4.5 0 00-1.392.228l-.672-.198.69-4.02h4.074v.468a.524.524 0 01-.144.378c-.092.096-.252.144-.48.144h-2.7l-.396 2.256z" fill="#fff"/></svg>